<svg width="48" height="54" viewBox="0 0 48 54" fill="none" xmlns="http://www.w3.org/2000/svg">
<path d="M48 13.7033V32.7705C48 40.3383 41.6674 46.4738 33.8565 46.4738H32.426L25.1206 53.5472C24.8345 53.8244 24.4387 54 24 54C23.5947 54 23.2275 53.8568 22.9462 53.6165L22.8222 53.4964L22.8174 53.4918L15.574 46.4738H14.1387C6.3326 46.4738 0 40.3383 0 32.7705V13.7033C0 6.13552 6.3326 0 14.1435 0H33.8565C41.6674 0 48 6.13552 48 13.7033Z" fill="#FFD152"/>
<path d="M11.1759 26.4143C9.78346 26.4143 8.98982 27.9516 9.79772 29.0616C12.939 33.3855 18.1333 36.2046 24.0024 36.2046C29.8715 36.2046 35.061 33.3809 38.2023 29.0616C39.0102 27.9516 38.2166 26.4143 36.8241 26.4143H11.1759Z" fill="white"/>
<path d="M19.3309 19.8704H10.9288V15.7648C10.9288 13.4983 12.8107 11.6592 15.1298 11.6592C17.4489 11.6592 19.3309 13.4983 19.3309 15.7648V19.8704Z" fill="white"/>
<path d="M37.076 19.8704H28.6739V15.7648C28.6739 13.4983 30.5558 11.6592 32.8749 11.6592C35.1941 11.6592 37.076 13.4983 37.076 15.7648V19.8704Z" fill="white"/>
</svg>
